<svg width="100" height="100" viewBox="0 0 100 100" fill="none" xmlns="http://www.w3.org/2000/svg">
<path d="M79.6 24.8125C80.0265 24.3773 80.5356 24.0315 81.0974 23.7955C81.6592 23.5595 82.2625 23.4379 82.8719 23.4379C83.4813 23.4379 84.0845 23.5595 84.6463 23.7955C85.2081 24.0315 85.7172 24.3773 86.1438 24.8125C87.9313 26.6187 87.9563 29.5375 86.2063 31.375L49.25 75.0625C48.8304 75.5233 48.3212 75.8936 47.7536 76.1508C47.186 76.408 46.5719 76.5467 45.9488 76.5584C45.3257 76.5701 44.7068 76.4545 44.1299 76.2188C43.5531 75.9831 43.0303 75.6322 42.5938 75.1875L20.1063 52.4C19.239 51.5155 18.7532 50.3262 18.7532 49.0875C18.7532 47.8488 19.239 46.6595 20.1063 45.775C20.5328 45.3398 21.0419 44.994 21.6037 44.758C22.1655 44.522 22.7687 44.4004 23.3781 44.4004C23.9875 44.4004 24.5908 44.522 25.1526 44.758C25.7144 44.994 26.2235 45.3398 26.65 45.775L45.725 65.1062L79.475 24.95C79.5139 24.9017 79.5556 24.8558 79.6 24.8125Z" fill="#277fe4"/>
</svg>
